<svg width="24" height="24" viewBox="0 0 24 24" fill="none" xmlns="http://www.w3.org/2000/svg">
<rect opacity="0.01" width="24" height="24" fill="black"/>
<path d="M19.74 7.33018L19.3661 7.6622L19.37 7.66649L19.74 7.33018ZM15.3 2.33018L15.6739 1.99817L15.6712 1.99518L15.3 2.33018ZM20 8.00018H20.5L20.5 7.99888L20 8.00018ZM20 19.5002L20.5 19.5061V19.5002H20ZM17.44 22.0002L17.446 21.5002H17.44V22.0002ZM6.56 22.0002V21.5001L6.55404 21.5002L6.56 22.0002ZM4.76218 21.2804L5.11152 20.9227L4.76218 21.2804ZM4 19.5002H3.49997L3.50003 19.5061L4 19.5002ZM4 4.50018L3.5 4.49429V4.50018H4ZM4.76218 2.71993L4.41285 2.36221L4.76218 2.71993ZM6.56 2.00018L6.55404 2.50018H6.56V2.00018ZM14.56 2.00018L14.5612 1.50018H14.56V2.00018ZM14.71 8.00018L14.661 8.49777L14.6854 8.50018H14.71V8.00018ZM14 7.15018L14.4984 7.19056L14.5 7.1704V7.15018H14ZM17.74 8.00018V8.50018H18.892L18.1052 7.6587L17.74 8.00018ZM14 4.00018L14.3652 3.6587L13.5 2.73332V4.00018H14ZM19.74 7.33018L20.1139 6.99818L15.6739 1.99818L15.3 2.33018L14.9261 2.66218L19.3661 7.66218L19.74 7.33018ZM20 8.00018L20.5 7.99888C20.499 7.62712 20.36 7.26897 20.11 6.99388L19.74 7.33018L19.37 7.66649C19.4534 7.75819 19.4997 7.87757 19.5 8.00148L20 8.00018ZM20 19.5002H20.5V8.00018H20H19.5V19.5002H20ZM19.2378 21.2804L19.5872 21.6381C20.1621 21.0766 20.4905 20.3097 20.5 19.5061L20 19.5002L19.5 19.4943C19.4937 20.0327 19.2737 20.5465 18.8885 20.9227L19.2378 21.2804ZM17.44 22.0002L17.434 22.5001C18.2377 22.5097 19.0122 22.1997 19.5872 21.6381L19.2378 21.2804L18.8885 20.9227C18.5033 21.2989 17.9844 21.5066 17.446 21.5002L17.44 22.0002ZM6.56 22.0002V22.5002H17.44V22.0002V21.5002H6.56V22.0002ZM4.76218 21.2804L4.41285 21.6381C4.98783 22.1997 5.76234 22.5097 6.56596 22.5001L6.56 22.0002L6.55404 21.5002C6.01564 21.5066 5.49674 21.2989 5.11152 20.9227L4.76218 21.2804ZM4 19.5002L3.50003 19.5061C3.50951 20.3097 3.83786 21.0766 4.41285 21.6381L4.76218 21.2804L5.11152 20.9227C4.7263 20.5465 4.50631 20.0327 4.49997 19.4943L4 19.5002ZM4 4.50018H3.5V19.5002H4H4.5V4.50018H4ZM4.76218 2.71993L4.41285 2.36221C3.83786 2.92372 3.50951 3.69066 3.50003 4.49429L4 4.50018L4.49997 4.50607C4.50631 3.96767 4.7263 3.45385 5.11152 3.07765L4.76218 2.71993ZM6.56 2.00018L6.56596 1.50022C5.76234 1.49063 4.98783 1.8007 4.41285 2.36221L4.76218 2.71993L5.11152 3.07765C5.49674 2.70146 6.01564 2.49372 6.55404 2.50014L6.56 2.00018ZM14.56 2.00018V1.50018H6.56V2.00018V2.50018H14.56V2.00018ZM15.3 2.33018L15.6712 1.99518C15.3876 1.68096 14.9844 1.50118 14.5612 1.50018L14.56 2.00018L14.5588 2.50018C14.6999 2.50051 14.8343 2.56044 14.9288 2.66518L15.3 2.33018ZM9 12.0002V12.5002H12V12.0002V11.5002H9V12.0002ZM8 13.0002H8.5C8.5 12.724 8.72386 12.5002 9 12.5002V12.0002V11.5002C8.17157 11.5002 7.5 12.1718 7.5 13.0002H8ZM9 14.0002V13.5002C8.72386 13.5002 8.5 13.2763 8.5 13.0002H8H7.5C7.5 13.8286 8.17157 14.5002 9 14.5002V14.0002ZM12 14.0002V13.5002H9V14.0002V14.5002H12V14.0002ZM13 13.0002H12.5C12.5 13.2763 12.2761 13.5002 12 13.5002V14.0002V14.5002C12.8284 14.5002 13.5 13.8286 13.5 13.0002H13ZM12 12.0002V12.5002C12.2761 12.5002 12.5 12.724 12.5 13.0002H13H13.5C13.5 12.1718 12.8284 11.5002 12 11.5002V12.0002ZM8 17.0002H7.5C7.5 17.8286 8.17157 18.5002 9 18.5002V18.0002V17.5002C8.72386 17.5002 8.5 17.2763 8.5 17.0002H8ZM9 16.0002V15.5002C8.17157 15.5002 7.5 16.1718 7.5 17.0002H8H8.5C8.5 16.724 8.72386 16.5002 9 16.5002V16.0002ZM15 16.0002V15.5002H9V16.0002V16.5002H15V16.0002ZM16 17.0002H16.5C16.5 16.1718 15.8284 15.5002 15 15.5002V16.0002V16.5002C15.2761 16.5002 15.5 16.724 15.5 17.0002H16ZM15 18.0002V18.5002C15.8284 18.5002 16.5 17.8286 16.5 17.0002H16H15.5C15.5 17.2763 15.2761 17.5002 15 17.5002V18.0002ZM9 18.0002V18.5002H15V18.0002V17.5002H9V18.0002ZM14.71 8.00018L14.759 7.50259C14.6016 7.48708 14.4856 7.34825 14.4984 7.19056L14 7.15018L13.5016 7.1098C13.4448 7.81124 13.9606 8.42881 14.661 8.49777L14.71 8.00018ZM17.74 8.00018V7.50018H14.71V8.00018V8.50018H17.74V8.00018ZM14 4.00018L13.6348 4.34166L17.3748 8.34166L17.74 8.00018L18.1052 7.6587L14.3652 3.6587L14 4.00018ZM14 7.15018H14.5V4.00018H14H13.5V7.15018H14Z" fill="#061C43"/>
</svg>
