<svg width="28" height="28" viewBox="0 0 28 28" fill="none" xmlns="http://www.w3.org/2000/svg">
<path d="M0 12.8C0 8.31958 0 6.07937 0.871948 4.36808C1.63893 2.86278 2.86278 1.63893 4.36808 0.871948C6.07937 0 8.31958 0 12.8 0H15.2C19.6804 0 21.9206 0 23.6319 0.871948C25.1372 1.63893 26.3611 2.86278 27.1281 4.36808C28 6.07937 28 8.31958 28 12.8V15.2C28 19.6804 28 21.9206 27.1281 23.6319C26.3611 25.1372 25.1372 26.3611 23.6319 27.1281C21.9206 28 19.6804 28 15.2 28H12.8C8.31958 28 6.07937 28 4.36808 27.1281C2.86278 26.3611 1.63893 25.1372 0.871948 23.6319C0 21.9206 0 19.6804 0 15.2V12.8Z" fill="black" fill-opacity="0.04"/>
<path d="M12.1667 16.4583C12.3472 16.6111 12.5383 16.7189 12.74 16.7817C12.9417 16.8444 13.1394 16.8756 13.3333 16.875C13.7361 16.875 14.1008 16.7467 14.4275 16.49C14.7542 16.2333 14.945 15.8617 15 15.375C15.0694 14.7222 14.8681 14.2397 14.3958 13.9275C13.9236 13.6153 13.5694 13.2089 13.3333 12.7083C13.2639 12.9028 13.2292 13.0833 13.2292 13.25C13.2292 13.4167 13.25 13.5972 13.2917 13.7917C13.3333 14.0278 13.3819 14.25 13.4375 14.4583C13.4931 14.6667 13.5 14.8889 13.4583 15.125C13.3889 15.375 13.2361 15.6319 13 15.8958C12.7639 16.1597 12.4861 16.3472 12.1667 16.4583ZM5 19V5.66667C5 5.20833 5.16333 4.81611 5.49 4.49C5.81667 4.16389 6.20889 4.00056 6.66667 4H20C20.4583 4 20.8508 4.16333 21.1775 4.49C21.5042 4.81667 21.6672 5.20889 21.6667 5.66667V19C21.6667 19.4583 21.5036 19.8508 21.1775 20.1775C20.8514 20.5042 20.4589 20.6672 20 20.6667H6.66667C6.20833 20.6667 5.81611 20.5036 5.49 20.1775C5.16389 19.8514 5.00056 19.4589 5 19ZM13.3333 17.3333C14.0278 17.3333 14.6181 17.0903 15.1042 16.6042C15.5903 16.1181 15.8333 15.5278 15.8333 14.8333C15.8333 14.5 15.7639 14.2222 15.625 14C15.4861 13.7778 15.2917 13.5694 15.0417 13.375C14.5139 13 14.0728 12.6078 13.7183 12.1983C13.3639 11.7889 13.0828 11.3756 12.875 10.9583C12.2639 11.4444 11.7708 11.9967 11.3958 12.615C11.0208 13.2333 10.8333 13.9589 10.8333 14.7917C10.8333 15.2778 11.0833 15.8231 11.5833 16.4275C12.0833 17.0319 12.6667 17.3339 13.3333 17.3333ZM6.66667 19H8.33333V18.1667C8.33333 17.9306 8.41333 17.7328 8.57333 17.5733C8.73333 17.4139 8.93111 17.3339 9.16667 17.3333H10.2083C9.88889 16.9306 9.63528 16.5069 9.4475 16.0625C9.25972 15.6181 9.16611 15.1944 9.16667 14.7917C9.16667 13.3333 9.5 12.1633 10.1667 11.2817C10.8333 10.4 11.7708 9.59778 12.9792 8.875C13.1181 8.79167 13.2569 8.75 13.3958 8.75C13.5347 8.75 13.6667 8.78472 13.7917 8.85417C13.9167 8.92361 14.0208 9.02083 14.1042 9.14583C14.1875 9.27083 14.2361 9.40972 14.25 9.5625C14.2778 10.0347 14.4792 10.4931 14.8542 10.9375C15.2292 11.3819 15.5972 11.7361 15.9583 12C16.4167 12.3333 16.7883 12.7258 17.0733 13.1775C17.3583 13.6292 17.5006 14.1811 17.5 14.8333C17.5 15.3194 17.4236 15.7675 17.2708 16.1775C17.1181 16.5875 16.9167 16.9728 16.6667 17.3333H17.5C17.7361 17.3333 17.9342 17.4133 18.0942 17.5733C18.2542 17.7333 18.3339 17.9311 18.3333 18.1667V19H20V5.66667H6.66667V19Z" fill="#1A1A1A"/>
</svg>
