<svg width="28" height="28" viewBox="0 0 28 28" fill="none" xmlns="http://www.w3.org/2000/svg">
<path d="M0 12.8C0 8.31958 0 6.07937 0.871948 4.36808C1.63893 2.86278 2.86278 1.63893 4.36808 0.871948C6.07937 0 8.31958 0 12.8 0H15.2C19.6804 0 21.9206 0 23.6319 0.871948C25.1372 1.63893 26.3611 2.86278 27.1281 4.36808C28 6.07937 28 8.31958 28 12.8V15.2C28 19.6804 28 21.9206 27.1281 23.6319C26.3611 25.1372 25.1372 26.3611 23.6319 27.1281C21.9206 28 19.6804 28 15.2 28H12.8C8.31958 28 6.07937 28 4.36808 27.1281C2.86278 26.3611 1.63893 25.1372 0.871948 23.6319C0 21.9206 0 19.6804 0 15.2V12.8Z" fill="black" fill-opacity="0.04"/>
<path d="M7 20.3333V18.6667H23.6667V20.3333H7ZM8.66667 17V10.3333H10.3333V17H8.66667ZM12 17V7H13.6667V17H12ZM15.3333 17V7H17V17H15.3333ZM21.1667 17L17.8333 11.1667L19.2917 10.3333L22.625 16.1667L21.1667 17Z" fill="#1A1A1A"/>
</svg>
