<svg width="28" height="28" viewBox="0 0 28 28" fill="none" xmlns="http://www.w3.org/2000/svg">
<path d="M0 12.8C0 8.31958 0 6.07937 0.871948 4.36808C1.63893 2.86278 2.86278 1.63893 4.36808 0.871948C6.07937 0 8.31958 0 12.8 0H15.2C19.6804 0 21.9206 0 23.6319 0.871948C25.1372 1.63893 26.3611 2.86278 27.1281 4.36808C28 6.07937 28 8.31958 28 12.8V15.2C28 19.6804 28 21.9206 27.1281 23.6319C26.3611 25.1372 25.1372 26.3611 23.6319 27.1281C21.9206 28 19.6804 28 15.2 28H12.8C8.31958 28 6.07937 28 4.36808 27.1281C2.86278 26.3611 1.63893 25.1372 0.871948 23.6319C0 21.9206 0 19.6804 0 15.2V12.8Z" fill="black" fill-opacity="0.04"/>
<path d="M4 7.63636V5.81818C4 5.31818 4.196 4.8903 4.588 4.53455C4.98 4.17879 5.45067 4.00061 6 4H8C8.28333 4 8.521 4.08727 8.713 4.26182C8.905 4.43636 9.00066 4.65212 9 4.90909C8.99933 5.16606 8.90333 5.38212 8.712 5.55727C8.52066 5.73242 8.28333 5.81939 8 5.81818H6V7.63636C6 7.89394 5.904 8.11 5.712 8.28454C5.52 8.45909 5.28267 8.54606 5 8.54545C4.71733 8.54485 4.48 8.45757 4.288 8.28363C4.096 8.10969 4 7.89394 4 7.63636ZM22 7.63636V5.81818H20C19.7167 5.81818 19.4793 5.73091 19.288 5.55636C19.0967 5.38182 19.0007 5.16606 19 4.90909C18.9993 4.65212 19.0953 4.43636 19.288 4.26182C19.4807 4.08727 19.718 4 20 4H22C22.55 4 23.021 4.17818 23.413 4.53455C23.805 4.89091 24.0007 5.31879 24 5.81818V7.63636C24 7.89394 23.904 8.11 23.712 8.28454C23.52 8.45909 23.2827 8.54606 23 8.54545C22.7173 8.54485 22.48 8.45757 22.288 8.28363C22.096 8.10969 22 7.89394 22 7.63636ZM4 22.1818V20.3636C4 20.1061 4.096 19.8903 4.288 19.7164C4.48 19.5424 4.71733 19.4551 5 19.4545C5.28267 19.4539 5.52033 19.5412 5.713 19.7164C5.90567 19.8915 6.00133 20.1073 6 20.3636V22.1818H8C8.28333 22.1818 8.521 22.2691 8.713 22.4436C8.905 22.6182 9.00066 22.8339 9 23.0909C8.99933 23.3479 8.90333 23.5639 8.712 23.7391C8.52066 23.9142 8.28333 24.0012 8 24H6C5.45 24 4.97933 23.8221 4.588 23.4664C4.19667 23.1106 4.00067 22.6824 4 22.1818ZM22 24H20C19.7167 24 19.4793 23.9127 19.288 23.7382C19.0967 23.5636 19.0007 23.3479 19 23.0909C18.9993 22.8339 19.0953 22.6182 19.288 22.4436C19.4807 22.2691 19.718 22.1818 20 22.1818H22V20.3636C22 20.1061 22.096 19.8903 22.288 19.7164C22.48 19.5424 22.7173 19.4551 23 19.4545C23.2827 19.4539 23.5203 19.5412 23.713 19.7164C23.9057 19.8915 24.0013 20.1073 24 20.3636V22.1818C24 22.6818 23.8043 23.11 23.413 23.4664C23.0217 23.8227 22.5507 24.0006 22 24ZM9 19.4545H19V8.54545H9V19.4545ZM9 21.2727C8.45 21.2727 7.97933 21.0948 7.588 20.7391C7.19666 20.3833 7.00066 19.9551 7 19.4545V8.54545C7 8.04545 7.196 7.61757 7.588 7.26182C7.98 6.90606 8.45066 6.72788 9 6.72727H19C19.55 6.72727 20.021 6.90545 20.413 7.26182C20.805 7.61818 21.0007 8.04606 21 8.54545V19.4545C21 19.9545 20.8043 20.3827 20.413 20.7391C20.0217 21.0954 19.5507 21.2733 19 21.2727H9ZM12 12.1818H16C16.2833 12.1818 16.521 12.0945 16.713 11.92C16.905 11.7454 17.0007 11.5297 17 11.2727C16.9993 11.0158 16.9033 10.8 16.712 10.6255C16.5207 10.4509 16.2833 10.3636 16 10.3636H12C11.7167 10.3636 11.4793 10.4509 11.288 10.6255C11.0967 10.8 11.0007 11.0158 11 11.2727C10.9993 11.5297 11.0953 11.7458 11.288 11.9209C11.4807 12.0961 11.718 12.183 12 12.1818ZM12 14.9091H16C16.2833 14.9091 16.521 14.8218 16.713 14.6473C16.905 14.4727 17.0007 14.257 17 14C16.9993 13.743 16.9033 13.5273 16.712 13.3527C16.5207 13.1782 16.2833 13.0909 16 13.0909H12C11.7167 13.0909 11.4793 13.1782 11.288 13.3527C11.0967 13.5273 11.0007 13.743 11 14C10.9993 14.257 11.0953 14.473 11.288 14.6482C11.4807 14.8233 11.718 14.9103 12 14.9091ZM12 17.6364H16C16.2833 17.6364 16.521 17.5491 16.713 17.3745C16.905 17.2 17.0007 16.9842 17 16.7273C16.9993 16.4703 16.9033 16.2545 16.712 16.08C16.5207 15.9054 16.2833 15.8182 16 15.8182H12C11.7167 15.8182 11.4793 15.9054 11.288 16.08C11.0967 16.2545 11.0007 16.4703 11 16.7273C10.9993 16.9842 11.0953 17.2003 11.288 17.3754C11.4807 17.5506 11.718 17.6376 12 17.6364Z" fill="#1A1A1A"/>
</svg>
