<svg width="28" height="28" viewBox="0 0 28 28" fill="none" xmlns="http://www.w3.org/2000/svg">
<path d="M0 12.8C0 8.31958 0 6.07937 0.871948 4.36808C1.63893 2.86278 2.86278 1.63893 4.36808 0.871948C6.07937 0 8.31958 0 12.8 0H15.2C19.6804 0 21.9206 0 23.6319 0.871948C25.1372 1.63893 26.3611 2.86278 27.1281 4.36808C28 6.07937 28 8.31958 28 12.8V15.2C28 19.6804 28 21.9206 27.1281 23.6319C26.3611 25.1372 25.1372 26.3611 23.6319 27.1281C21.9206 28 19.6804 28 15.2 28H12.8C8.31958 28 6.07937 28 4.36808 27.1281C2.86278 26.3611 1.63893 25.1372 0.871948 23.6319C0 21.9206 0 19.6804 0 15.2V12.8Z" fill="black" fill-opacity="0.04"/>
<path d="M15 13.5C15.6944 13.5 16.2847 13.2569 16.7708 12.7708C17.2569 12.2847 17.5 11.6944 17.5 11C17.5 10.3056 17.2569 9.71528 16.7708 9.22917C16.2847 8.74306 15.6944 8.5 15 8.5C14.3056 8.5 13.7153 8.74306 13.2292 9.22917C12.7431 9.71528 12.5 10.3056 12.5 11C12.5 11.6944 12.7431 12.2847 13.2292 12.7708C13.7153 13.2569 14.3056 13.5 15 13.5ZM10 17.4583C10.625 16.7222 11.375 16.1564 12.25 15.7608C13.125 15.3653 14.0417 15.1672 15 15.1667C15.9583 15.1661 16.875 15.3642 17.75 15.7608C18.625 16.1575 19.375 16.7233 20 17.4583V7.66667H10V17.4583ZM10 19.3333C9.54167 19.3333 9.14944 19.1703 8.82333 18.8442C8.49722 18.5181 8.33389 18.1256 8.33333 17.6667V7.66667C8.33333 7.20833 8.49667 6.81611 8.82333 6.49C9.15 6.16389 9.54222 6.00056 10 6H20C20.4583 6 20.8508 6.16333 21.1775 6.49C21.5042 6.81667 21.6672 7.20889 21.6667 7.66667V17.6667C21.6667 18.125 21.5036 18.5175 21.1775 18.8442C20.8514 19.1708 20.4589 19.3339 20 19.3333H10ZM6.66667 22.6667C6.20833 22.6667 5.81611 22.5036 5.49 22.1775C5.16389 21.8514 5.00056 21.4589 5 21V10.1667C5 9.93056 5.08 9.73278 5.24 9.57333C5.4 9.41389 5.59778 9.33389 5.83333 9.33333C6.06889 9.33278 6.26694 9.41278 6.4275 9.57333C6.58806 9.73389 6.66778 9.93167 6.66667 10.1667V21H17.5C17.7361 21 17.9342 21.08 18.0942 21.24C18.2542 21.4 18.3339 21.5978 18.3333 21.8333C18.3328 22.0689 18.2528 22.2669 18.0933 22.4275C17.9339 22.5881 17.7361 22.6678 17.5 22.6667H6.66667ZM15 11.8333C14.7639 11.8333 14.5661 11.7533 14.4067 11.5933C14.2472 11.4333 14.1672 11.2356 14.1667 11C14.1661 10.7644 14.2461 10.5667 14.4067 10.4067C14.5672 10.2467 14.765 10.1667 15 10.1667C15.235 10.1667 15.4331 10.2467 15.5942 10.4067C15.7553 10.5667 15.835 10.7644 15.8333 11C15.8317 11.2356 15.7517 11.4336 15.5933 11.5942C15.435 11.7547 15.2372 11.8344 15 11.8333ZM12.25 17.6667H17.75C17.3472 17.3889 16.9097 17.1806 16.4375 17.0417C15.9653 16.9028 15.4861 16.8333 15 16.8333C14.5139 16.8333 14.0347 16.9028 13.5625 17.0417C13.0903 17.1806 12.6528 17.3889 12.25 17.6667Z" fill="#1A1A1A"/>
</svg>
