<svg width="28" height="28" viewBox="0 0 28 28" fill="none" xmlns="http://www.w3.org/2000/svg">
<path d="M0 12.8C0 8.31958 0 6.07937 0.871948 4.36808C1.63893 2.86278 2.86278 1.63893 4.36808 0.871948C6.07937 0 8.31958 0 12.8 0H15.2C19.6804 0 21.9206 0 23.6319 0.871948C25.1372 1.63893 26.3611 2.86278 27.1281 4.36808C28 6.07937 28 8.31958 28 12.8V15.2C28 19.6804 28 21.9206 27.1281 23.6319C26.3611 25.1372 25.1372 26.3611 23.6319 27.1281C21.9206 28 19.6804 28 15.2 28H12.8C8.31958 28 6.07937 28 4.36808 27.1281C2.86278 26.3611 1.63893 25.1372 0.871948 23.6319C0 21.9206 0 19.6804 0 15.2V12.8Z" fill="black" fill-opacity="0.04"/>
<path d="M7.33301 19.8335V18.3335C7.33301 17.8613 7.45467 17.4274 7.69801 17.0318C7.94134 16.6363 8.26412 16.3341 8.66634 16.1252C9.52745 15.6946 10.4025 15.3718 11.2913 15.1568C12.1802 14.9418 13.083 14.8341 13.9997 14.8335C14.5136 14.8335 15.0205 14.8649 15.5205 14.9277C16.0205 14.9904 16.5205 15.091 17.0205 15.2293L15.6247 16.646C15.3469 16.6043 15.0761 16.5696 14.8122 16.5418C14.5483 16.5141 14.2775 16.5002 13.9997 16.5002C13.2219 16.5002 12.4511 16.5941 11.6872 16.7818C10.9233 16.9696 10.1663 17.2507 9.41634 17.6252C9.29134 17.6946 9.19051 17.7918 9.11384 17.9168C9.03717 18.0418 8.99912 18.1807 8.99967 18.3335V19.0002H13.9997V20.6668H8.16634C7.93023 20.6668 7.73245 20.5868 7.57301 20.4268C7.41356 20.2668 7.33356 20.0691 7.33301 19.8335ZM15.6663 20.6668V19.6252C15.6663 19.4029 15.7116 19.191 15.8022 18.9893C15.8927 18.7877 16.0141 18.6107 16.1663 18.4585L20.2705 14.3543C20.3955 14.2293 20.5344 14.1391 20.6872 14.0835C20.84 14.0279 20.9927 14.0002 21.1455 14.0002C21.3122 14.0002 21.4719 14.0316 21.6247 14.0943C21.7775 14.1571 21.9163 14.2507 22.0413 14.3752L22.8122 15.146C22.9233 15.271 23.0102 15.4099 23.073 15.5627C23.1358 15.7154 23.1669 15.8682 23.1663 16.021C23.1658 16.1738 23.138 16.3302 23.083 16.4902C23.028 16.6502 22.9377 16.7924 22.8122 16.9168L18.708 21.021C18.5552 21.1738 18.3783 21.2918 18.1772 21.3752C17.9761 21.4585 17.7641 21.5002 17.5413 21.5002H16.4997C16.2636 21.5002 16.0658 21.4202 15.9063 21.2602C15.7469 21.1002 15.6669 20.9024 15.6663 20.6668ZM16.9163 20.2502H17.708L20.2288 17.7085L19.8538 17.3127L19.458 16.9377L16.9163 19.4585V20.2502ZM19.8538 17.3127L19.458 16.9377L20.2288 17.7085L19.8538 17.3127ZM13.9997 14.0002C13.083 14.0002 12.2983 13.6738 11.6455 13.021C10.9927 12.3682 10.6663 11.5835 10.6663 10.6668C10.6663 9.75016 10.9927 8.96544 11.6455 8.31266C12.2983 7.65989 13.083 7.3335 13.9997 7.3335C14.9163 7.3335 15.7011 7.65989 16.3538 8.31266C17.0066 8.96544 17.333 9.75016 17.333 10.6668C17.333 11.5835 17.0066 12.3682 16.3538 13.021C15.7011 13.6738 14.9163 14.0002 13.9997 14.0002ZM13.9997 12.3335C14.458 12.3335 14.8505 12.1704 15.1772 11.8443C15.5038 11.5182 15.6669 11.1257 15.6663 10.6668C15.6658 10.2079 15.5027 9.81572 15.1772 9.49016C14.8516 9.16461 14.4591 9.00127 13.9997 9.00016C13.5402 8.99905 13.148 9.16238 12.823 9.49016C12.498 9.81794 12.3347 10.2102 12.333 10.6668C12.3313 11.1235 12.4947 11.516 12.823 11.8443C13.1513 12.1727 13.5436 12.3357 13.9997 12.3335Z" fill="#1A1A1A"/>
</svg>
